<svg fill="none" xmlns="http://www.w3.org/2000/svg" viewBox="0 0 552 67">
  <defs/>
  <path d="M55.901 49.125c0 .875-.5 3.313-1.5 7.313-.937 4-1.719 6.124-2.344 6.374-7 2.563-14.03 3.844-21.093 3.844-8.25 0-15.313-3.031-21.188-9.094C3.901 51.438.964 44.188.964 35.813c0-8.874 2.937-16.468 8.812-22.78 5.938-6.376 13.313-9.563 22.125-9.563 6.813 0 13.969.906 21.469 2.719.313.062.688 2.156 1.125 6.28.5 4.126.75 6.657.75 7.595 0 .937-.844 1.406-2.531 1.406-.063 0-.563-.094-1.5-.282-.313-1.125-.844-2.312-1.594-3.562-.688-1.25-1.75-2.594-3.188-4.031-1.375-1.438-3.312-2.594-5.812-3.469-2.438-.938-5.188-1.406-8.25-1.406-11.187 0-16.781 8.375-16.781 25.125 0 7.812 1.719 14.406 5.156 19.781 3.438 5.313 8.313 7.969 14.625 7.969 4.625 0 8.625-1.688 12-5.063.813-.812 1.531-1.906 2.156-3.281.688-1.438 1.188-2.625 1.5-3.563.375-1 .594-1.5.656-1.5 2.563 0 3.97.313 4.22.938zM90.78 24.187c3.625 0 6.563 1.532 8.813 4.594 2.312 3.063 3.468 7.719 3.468 13.969v9.281c0 4 .219 6.844.656 8.532.125.437 1 .937 2.625 1.5 1.625.562 2.719.843 3.282.843.187 0 .281.532.281 1.594.062 1 .031 1.625-.094 1.875-.687-.063-2.656-.188-5.906-.375-3.188-.25-5.5-.375-6.938-.375-1.5 0-3.78.125-6.843.375-3 .188-4.875.313-5.625.375-.25-.25-.375-.875-.375-1.875 0-1.063.125-1.594.375-1.594.687 0 1.781-.281 3.281-.843 1.5-.563 2.313-1.063 2.438-1.5.437-1.876.656-4.25.656-7.126V45c0-4.625-.625-7.906-1.875-9.844-1.25-2-3.281-3-6.094-3-4.375 0-6.563 1.375-6.563 4.125v15.75c0 4 .22 6.844.657 8.532.125.437.937.937 2.437 1.5 1.563.562 2.594.843 3.094.843.188 0 .281.532.281 1.594.063 1 .031 1.625-.094 1.875-.75-.063-2.656-.188-5.718-.375-3.063-.25-5.313-.375-6.75-.375-1.5 0-3.844.125-7.031.375-3.188.188-5.126.313-5.813.375-.25-.25-.375-.875-.375-1.875 0-1.063.125-1.594.375-1.594.688 0 1.844-.281 3.469-.843 1.625-.563 2.5-1.063 2.625-1.5.437-1.876.656-4.25.656-7.126V16.22c0-2.938-.156-5.188-.469-6.75-.312-1-1.937-1.5-4.875-1.5h-.843c-.376 0-.563-.625-.563-1.875 0-1.063.188-1.594.563-1.594a92.376 92.376 0 005.812-.75c2-.313 3.688-.625 5.063-.938a60.976 60.976 0 003.656-.937c1.125-.313 2-.563 2.625-.75l.937-.281h.188c.25 0 .5.187.75.562.25.375.406.719.469 1.032-.75 2.812-1.126 5.968-1.126 9.468v17.438c0 .437.126.656.376.656.062 0 .218-.125.468-.375 1.375-1.563 3.313-2.844 5.813-3.844a19.702 19.702 0 017.781-1.593zm38.066 35.72c1.625 0 2.875-.376 3.75-1.126.938-.812 1.406-1.781 1.406-2.906v-9.469c-.125.063-.75.282-1.875.657-1.062.312-1.75.53-2.062.656a95.52 95.52 0 00-1.781.75c-.875.312-1.5.625-1.875.937-.313.25-.719.594-1.219 1.032-.5.437-.844.906-1.031 1.406a4.766 4.766 0 00-.282 1.687c0 2.25.469 3.875 1.407 4.875 1 1 2.187 1.5 3.562 1.5zm3.75-36c4.375 0 7.719 1.218 10.031 3.655 2.375 2.375 3.563 6.72 3.563 13.032V55.78c0 2.125.75 3.188 2.25 3.188 1.062 0 2.125-.407 3.187-1.219.438.25.657.719.657 1.406 0 1.563-.219 2.719-.657 3.469-.875.813-2.312 1.688-4.312 2.625-1.938.875-3.781 1.313-5.531 1.313-1.5 0-2.938-.438-4.313-1.313-1.375-.938-2.281-2-2.719-3.188-.062 0-.312.188-.75.563-.437.313-1 .688-1.687 1.125-.688.438-1.5.875-2.438 1.313-.875.437-1.937.812-3.187 1.124-1.25.313-2.5.47-3.75.47-3.438 0-6.188-.938-8.25-2.813-2-1.938-3-4.344-3-7.219 0-1.688.375-3.219 1.125-4.594.812-1.437 1.719-2.593 2.719-3.468 1.062-.938 2.468-1.782 4.218-2.532 1.75-.812 3.25-1.406 4.5-1.781 1.25-.438 2.844-.906 4.782-1.406 2-.563 3.375-.969 4.125-1.219.562-.188.843-.656.843-1.406v-3.375c0-5.125-1.562-7.688-4.687-7.688-3.625 0-5.438 2.094-5.438 6.282 0 1.374-.562 2.406-1.687 3.093-1.125.625-2.375.938-3.75.938-2.875 0-4.844-.938-5.906-2.813 0-3.187 2.093-6.093 6.281-8.718 4.25-2.688 8.844-4.032 13.781-4.032zm27.285 7.405h-6.094c-.5 0-.75-.968-.75-2.906 0-.5.063-.843.188-1.031 3.5-1.75 6.312-3.438 8.437-5.063a59.673 59.673 0 003.282-2.625 180.692 180.692 0 013.187-2.812 86.566 86.566 0 001.5-1.313c.5 0 1.031.126 1.594.376.562.187.844.406.844.656v9.187h10.125c.5 0 .75.313.75.938 0 1.812-.313 3.343-.938 4.593h-9.937v22.22c0 4.75 1.687 7.124 5.062 7.124.938 0 1.781-.093 2.531-.281.813-.25 1.438-.5 1.875-.75.438-.25.688-.375.75-.375.25 0 .5.313.75.938.313.624.469 1.093.469 1.406 0 .75-1.281 1.781-3.844 3.093-2.562 1.313-4.968 1.97-7.218 1.97-3.438 0-6.407-1.063-8.907-3.188-2.437-2.188-3.656-5.688-3.656-10.5V31.312zM372.712 4.5c1.25 0 3-.063 5.25-.188 2.313-.187 3.844-.312 4.594-.375.625 2 3.188 7.907 7.688 17.72 4.5 9.75 7.843 17.343 10.031 22.78h.187c.125 0 .188-.03.188-.093 4.812-11.938 8.625-21.782 11.437-29.532l3.094-10.5c1.125.125 3.656.188 7.594.188.375 0 4.312-.188 11.812-.563.25.376.375.876.375 1.5 0 1.313-.156 1.97-.468 1.97h-.094c-1.563 0-2.875.374-3.938 1.124-.937.688-1.375 1.969-1.312 3.844.125 2.5.437 8.969.937 19.406.5 10.438.813 17.094.938 19.969.187 3.813.656 6.688 1.406 8.625.25.563 1.063 1.125 2.438 1.688 1.437.562 2.437.843 3 .843.25 0 .375.625.375 1.875 0 .688-.063 1.219-.188 1.594-.687-.063-2.437-.188-5.25-.375-2.812-.25-5.031-.375-6.656-.375-1.688 0-4.156.125-7.406.375-3.25.188-5.313.313-6.188.375-.312-.313-.469-.813-.469-1.5 0-1.313.094-1.969.282-1.969.687 0 1.75-.281 3.187-.843 1.438-.563 2.313-1.157 2.625-1.782.5-.937.75-1.812.75-2.625 0-1.437-.062-3.281-.187-5.531l-.75-23.813c-.25-4.187-.5-6.28-.75-6.28-.125 0-.282.218-.469.655l-16.219 40.407c-.25.625-.75 1.312-1.5 2.062-.75.688-1.5 1.031-2.25 1.031-.187 0-.469-.062-.844-.187l-20.625-46.313-1.593 36.094c0 1.813.031 2.938.093 3.375.188.813 1.563 1.657 4.125 2.532 2.563.812 4.25 1.218 5.063 1.218.25 0 .375.625.375 1.875 0 .688-.063 1.219-.188 1.594-.5 0-2.375-.125-5.625-.375s-5.687-.375-7.312-.375-3.875.125-6.75.375c-2.875.188-4.813.313-5.813.375-.25-.25-.375-.781-.375-1.594 0-1.187.094-1.781.282-1.781 1.125 0 2.937-.469 5.437-1.406 2.563-.938 3.906-2.063 4.031-3.375.125-1.438.25-2.938.375-4.5.188-3.25.407-8.032.657-14.344.25-6.375.468-12.5.656-18.375.187-5.875.312-9.219.375-10.031 0-.688-.094-1.25-.281-1.688-.188-.5-1.188-.937-3-1.312-1.813-.438-3.125-.657-3.938-.657-.25 0-.375-.656-.375-1.968 0-.688.125-1.157.375-1.407.875.063 2.469.188 4.781.376 2.375.125 4.375.187 6 .187zm84.192 55.406c1.625 0 2.875-.375 3.75-1.125.937-.812 1.406-1.781 1.406-2.906v-9.469c-.125.063-.75.282-1.875.657-1.063.312-1.75.53-2.063.656-.312.125-.906.375-1.781.75-.875.312-1.5.625-1.875.937-.312.25-.719.594-1.219 1.032-.5.437-.843.906-1.031 1.406a4.79 4.79 0 00-.281 1.687c0 2.25.469 3.875 1.406 4.875 1 1 2.188 1.5 3.563 1.5zm3.75-36c4.375 0 7.718 1.219 10.031 3.657 2.375 2.375 3.562 6.718 3.562 13.03v15.188c0 2.125.75 3.188 2.25 3.188 1.063 0 2.125-.407 3.188-1.219.437.25.656.719.656 1.406 0 1.563-.219 2.719-.656 3.469-.875.813-2.313 1.688-4.313 2.625-1.937.875-3.781 1.313-5.531 1.313-1.5 0-2.937-.438-4.312-1.313-1.375-.938-2.282-2-2.719-3.188-.063 0-.313.188-.75.563-.438.313-1 .688-1.688 1.125-.687.438-1.5.875-2.437 1.313-.875.437-1.938.812-3.188 1.124-1.25.313-2.5.47-3.75.47-3.437 0-6.187-.938-8.25-2.813-2-1.938-3-4.344-3-7.219 0-1.688.375-3.219 1.125-4.594.813-1.437 1.719-2.593 2.719-3.468 1.063-.938 2.469-1.782 4.219-2.532 1.75-.812 3.25-1.406 4.5-1.781 1.25-.438 2.844-.906 4.781-1.406 2-.563 3.375-.969 4.125-1.219.563-.188.844-.656.844-1.406v-3.375c0-5.125-1.563-7.688-4.688-7.688-3.625 0-5.437 2.094-5.437 6.282 0 1.374-.563 2.406-1.688 3.093-1.125.625-2.375.938-3.75.938-2.875 0-4.843-.938-5.906-2.813 0-3.187 2.094-6.093 6.281-8.718 4.25-2.688 8.844-4.032 13.782-4.032zm27.285 7.407h-6.094c-.5 0-.75-.97-.75-2.907 0-.5.063-.843.188-1.031 3.5-1.75 6.312-3.438 8.437-5.063a59.694 59.694 0 003.281-2.625 180.307 180.307 0 013.188-2.812 96.895 96.895 0 001.5-1.313c.5 0 1.031.126 1.594.376.562.187.843.406.843.656v9.187h10.125c.5 0 .75.313.75.938 0 1.812-.312 3.343-.937 4.593h-9.938v22.22c0 4.75 1.688 7.124 5.063 7.124.937 0 1.781-.093 2.531-.281.813-.25 1.438-.5 1.875-.75.438-.25.688-.375.75-.375.25 0 .5.313.75.938.313.624.469 1.093.469 1.406 0 .75-1.281 1.781-3.844 3.093-2.562 1.313-4.969 1.97-7.219 1.97-3.437 0-6.406-1.063-8.906-3.188-2.437-2.188-3.656-5.688-3.656-10.5V31.312zm44.441-2.063c-2.437 0-4.219 1.188-5.344 3.563-1.125 2.312-1.687 4.593-1.687 6.843 0 .375.219.563.656.563h11.906c.875 0 1.313-.594 1.313-1.782 0-2.374-.656-4.5-1.969-6.374-1.25-1.876-2.875-2.813-4.875-2.813zm.469-5.156c5.625 0 10.125 1.968 13.5 5.906 3.437 3.875 5.156 7.844 5.156 11.906 0 1.438-.312 2.375-.937 2.813-.563.437-1.719.656-3.469.656h-21.188c-.375 0-.562.219-.562.656 0 3.375.937 6.407 2.812 9.094 1.938 2.688 4.688 4.031 8.25 4.031 2.063 0 4.032-.281 5.907-.843 1.875-.626 3.187-1.157 3.937-1.594.75-.5 1.75-1.219 3-2.157.563.25.844.844.844 1.782 0 .75-.125 1.375-.375 1.875-.625 1.5-2.5 3.281-5.625 5.343-3.125 2.063-6.625 3.094-10.5 3.094-5.75 0-10.719-2.094-14.906-6.281-4.125-4.188-6.188-9.219-6.188-15.094 0-6 1.875-11.031 5.625-15.093 3.75-4.063 8.656-6.094 14.719-6.094z" fill="#fff"/>
  <path d="M198.416 4.5c1.25 0 5.625-.188 13.125-.563.188.563.281 1.126.281 1.688 0 1.188-.125 1.781-.375 1.781-.562 0-1.687.282-3.375.844-1.687.5-2.593.969-2.718 1.406-.438 1.688-.657 4.188-.657 7.5v35.532c0 3.062.25 5.312.75 6.75.313 1 2.438 1.5 6.375 1.5h2.438c3.875 0 7.375-.813 10.5-2.438 1.062-.563 2.25-1.625 3.562-3.188a17.39 17.39 0 003.188-5.25c.125-.374.562-.562 1.312-.562 1.5 0 2.438.188 2.813.563-3.063 8.624-4.75 14-5.063 16.124-3.562 0-9.125-.062-16.687-.187-7.563-.125-12.688-.188-15.375-.188l-13.688.563c-.25-.25-.375-.781-.375-1.594 0-1.25.125-1.875.375-1.875.75 0 1.907-.218 3.469-.656 1.625-.438 2.531-.906 2.719-1.406.375-1.438.562-4.188.562-8.25V16.78c0-3.812-.25-6.156-.75-7.031-.312-.5-1.187-1-2.625-1.5-1.437-.563-2.5-.844-3.187-.844-.25 0-.375-.531-.375-1.593 0-1.125.062-1.75.187-1.875 8.625.374 13.157.562 13.594.562zm45.754 8.719c-1.375-1.375-2.063-3.031-2.063-4.969 0-1.938.688-3.563 2.063-4.875 1.375-1.375 3-2.063 4.875-2.063 1.937 0 3.562.688 4.875 2.063 1.375 1.313 2.062 2.938 2.062 4.875 0 1.938-.687 3.594-2.062 4.969-1.313 1.312-2.938 1.969-4.875 1.969-1.875 0-3.5-.657-4.875-1.97zm11.812 38.812c0 4 .219 6.844.657 8.532.125.437 1 .937 2.625 1.5 1.687.562 2.781.843 3.281.843.25 0 .375.532.375 1.594 0 1-.063 1.625-.188 1.875-.625-.063-2.562-.188-5.812-.375-3.25-.25-5.594-.375-7.031-.375-1.5 0-3.844.125-7.032.375-3.125.188-5.062.313-5.812.375-.188-.25-.281-.875-.281-1.875 0-1.063.093-1.594.281-1.594.75 0 1.906-.281 3.469-.843 1.625-.563 2.5-1.063 2.625-1.5.437-1.876.656-4.25.656-7.126V40.594c0-3.5-.563-5.844-1.688-7.032-.437-.5-1.093-.906-1.968-1.218a12.633 12.633 0 00-2.25-.657c-.625-.125-.938-.218-.938-.28 0-2.188.156-3.282.469-3.282 1.25 0 3.969-.406 8.156-1.219 4.25-.875 7.25-1.593 9-2.156.063 0 .25-.031.563-.094l.468-.187c.375 0 .688.218.938.656.312.375.469.688.469.938-.063.5-.188 1.437-.375 2.812a198.564 198.564 0 00-.469 3.656c-.125 1-.188 1.969-.188 2.907V52.03zm41.254-27.843c3.625 0 6.563 1.53 8.813 4.593 2.312 3.063 3.468 7.719 3.468 13.969v9.281c0 4 .219 6.844.657 8.532.125.437 1 .937 2.625 1.5 1.625.562 2.718.843 3.281.843.187 0 .281.532.281 1.594.063 1 .031 1.625-.094 1.875-.687-.063-2.656-.188-5.906-.375-3.187-.25-5.5-.375-6.937-.375-1.5 0-3.782.125-6.844.375-3 .188-4.875.313-5.625.375-.25-.25-.375-.875-.375-1.875 0-1.063.125-1.594.375-1.594.687 0 1.781-.281 3.281-.843 1.5-.563 2.313-1.063 2.438-1.5.437-1.876.656-4.25.656-7.126V45c0-4.625-.656-7.906-1.969-9.844-1.25-2-3.281-3-6.094-3-1.937 0-3.5.375-4.687 1.125-1.188.688-1.781 1.688-1.781 3v15.75c0 4 .218 6.844.656 8.532.125.437.937.937 2.437 1.5 1.563.562 2.594.843 3.094.843.188 0 .281.532.281 1.594.063 1 .032 1.625-.093 1.875-.75-.063-2.657-.188-5.719-.375-3.063-.25-5.313-.375-6.75-.375-1.5 0-3.844.125-7.031.375-3.188.188-5.125.313-5.813.375-.25-.25-.375-.875-.375-1.875 0-1.063.125-1.594.375-1.594.688 0 1.844-.281 3.469-.843 1.625-.563 2.5-1.063 2.625-1.5.437-1.876.656-4.25.656-7.126V40.594c0-3.5-.562-5.844-1.687-7.032-.438-.5-1.094-.906-1.969-1.218-.875-.313-1.625-.532-2.25-.657s-.938-.218-.938-.28c0-2.188.157-3.282.469-3.282.75 0 2-.156 3.75-.469 1.75-.375 4.031-.875 6.844-1.5 2.812-.625 5-1.093 6.562-1.406a.83.83 0 00.375-.094 1.55 1.55 0 01.469-.093l.188-.094c.312 0 .625.218.937.656.313.375.469.688.469.938-.25 1.75-.375 2.718-.375 2.906 0 .312.031.5.094.562.125 0 .343-.156.656-.468 3.5-3.25 7.844-4.875 13.031-4.875zm40.504 5.062c-2.438 0-4.219 1.188-5.344 3.563-1.125 2.312-1.687 4.593-1.687 6.843 0 .375.218.563.656.563h11.906c.875 0 1.313-.594 1.313-1.782 0-2.374-.657-4.5-1.969-6.374-1.25-1.876-2.875-2.813-4.875-2.813zm.469-5.156c5.625 0 10.125 1.968 13.5 5.906 3.437 3.875 5.156 7.844 5.156 11.906 0 1.438-.313 2.375-.938 2.813-.562.437-1.718.656-3.468.656h-21.188c-.375 0-.562.219-.562.656 0 3.375.937 6.407 2.812 9.094 1.938 2.688 4.688 4.031 8.25 4.031 2.063 0 4.031-.281 5.906-.843 1.875-.626 3.188-1.157 3.938-1.594.75-.5 1.75-1.219 3-2.157.562.25.844.844.844 1.782 0 .75-.125 1.375-.375 1.875-.625 1.5-2.5 3.281-5.625 5.343-3.125 2.063-6.625 3.094-10.5 3.094-5.75 0-10.719-2.094-14.907-6.281-4.125-4.188-6.187-9.219-6.187-15.094 0-6 1.875-11.031 5.625-15.093 3.75-4.063 8.656-6.094 14.719-6.094z" fill="#FF052F"/>
</svg>
