<svg xmlns="http://www.w3.org/2000/svg" viewBox="0 0 24 24">
  <defs/>
  <path d="M20.25 23H3.5a.75.75 0 010-1.5h16.75c.689 0 1.25-.561 1.25-1.25V3.5a.75.75 0 011.5 0v16.75A2.752 2.752 0 0120.25 23zM1.86 21.89a.748.748 0 01-.696-.472A2.46 2.46 0 011 20.5V3.75A2.752 2.752 0 013.75 1H20.5c.339 0 .648.055.919.164a.75.75 0 11-.559 1.392.982.982 0 00-.36-.056H3.75c-.689 0-1.25.561-1.25 1.25V20.5c0 .146.02.268.057.362a.75.75 0 01-.697 1.028z" fill="#fff" data-original="#000000" xmlns="http://www.w3.org/2000/svg"/>
  <path d="M.75 23a.75.75 0 01-.53-1.281l21.5-21.5a.75.75 0 111.061 1.061l-21.5 21.5A.748.748 0 01.75 23z" fill="#fff" data-original="#000000" xmlns="http://www.w3.org/2000/svg"/>
  <path d="M10.75 10.88a.75.75 0 01-.75-.75v-.38a.75.75 0 011.5 0v.38a.75.75 0 01-.75.75zM12 15h-.63a.75.75 0 010-1.5H12c.399 0 .775-.156 1.06-.44.284-.284.44-.66.44-1.06 0-.137-.015-.257-.042-.356a.749.749 0 111.444-.407c.065.231.098.488.098.763 0 .8-.312 1.554-.88 2.121S12.8 15 12 15zM7.25 15a.75.75 0 01-.75-.75V11a.5.5 0 00-1 0v3.25a.75.75 0 01-1.5 0V11c0-1.103.897-2 2-2s2 .897 2 2v3.25a.75.75 0 01-.75.75z" fill="#fff" data-original="#000000" xmlns="http://www.w3.org/2000/svg"/>
  <path d="M7.25 13.5h-2.5a.75.75 0 010-1.5h2.5a.75.75 0 010 1.5zM18.208 15H16.75a.75.75 0 010-1.5h1.458c.158 0 .292-.172.292-.375s-.134-.375-.292-.375h-.416c-.988 0-1.792-.841-1.792-1.875S16.804 9 17.792 9h1.458a.75.75 0 010 1.5h-1.458c-.158 0-.292.172-.292.375s.134.375.292.375h.416c.988 0 1.792.841 1.792 1.875S19.196 15 18.208 15z" fill="#fff" data-original="#000000" xmlns="http://www.w3.org/2000/svg"/>
</svg>
