<svg xmlns="http://www.w3.org/2000/svg" viewBox="0 0 512.001 512.001">
  <defs/>
  <path d="M412.222 280.145c-15.32 0-27.74 12.42-27.74 27.74v-20.78c0-15.319-12.419-27.738-27.738-27.738-15.319 0-27.738 12.419-27.738 27.738v-20.778c0-15.32-12.419-27.739-27.739-27.739s-27.739 12.419-27.739 27.739v-79.106c0-15.32-12.42-27.74-27.74-27.74s-27.74 12.419-27.74 27.74v155.192l-27.357-27.357c-10.833-10.833-28.397-10.833-39.23 0-10.833 10.833-10.833 28.397 0 39.23l29.694 29.694a92.855 92.855 0 0124.247 42.442c13.009 50.379 58.452 85.579 110.484 85.579h4.351c66.122 0 119.725-53.603 119.725-119.724v-84.392c0-15.321-12.42-27.74-27.74-27.74zM112.433.001c-22.274 0-40.395 18.451-40.395 41.13 0 22.678 18.121 41.128 40.395 41.128 22.274 0 40.394-18.45 40.394-41.128 0-22.679-18.121-41.13-40.394-41.13zM245.584.001c-22.274 0-40.396 18.451-40.396 41.129 0 22.678 18.122 41.127 40.396 41.127 22.273 0 40.393-18.45 40.393-41.127 0-22.678-18.12-41.129-40.393-41.129zM378.732 0c-22.273 0-40.394 18.451-40.394 41.13-.001 22.679 18.12 41.129 40.394 41.129s40.394-18.45 40.394-41.129S401.005 0 378.732 0zM378.732 133.151c-22.273 0-40.394 18.451-40.394 41.13-.001 22.678 18.12 41.128 40.394 41.128s40.394-18.45 40.394-41.128c0-22.679-18.121-41.13-40.394-41.13zM112.433 133.151c-22.274 0-40.394 18.451-40.394 41.13 0 22.678 18.121 41.128 40.394 41.128 22.274 0 40.394-18.45 40.394-41.128 0-22.679-18.121-41.13-40.394-41.13z" fill="#fff" data-original="#000000" xmlns="http://www.w3.org/2000/svg"/>
</svg>
