<svg xmlns="http://www.w3.org/2000/svg" viewBox="0 0 512 512">
  <defs/>
  <g xmlns="http://www.w3.org/2000/svg">
    <path d="M469.333 68.267H42.667C19.114 68.295.028 87.381 0 110.933v290.133c.028 23.552 19.114 42.638 42.667 42.667h426.667c23.552-.028 42.638-19.114 42.667-42.667V110.933c-.029-23.552-19.115-42.638-42.668-42.666zm25.6 332.8c0 14.138-11.462 25.6-25.6 25.6H42.667c-14.138 0-25.6-11.462-25.6-25.6V110.933c0-14.138 11.462-25.6 25.6-25.6h426.667c14.138 0 25.6 11.462 25.6 25.6v290.134z" fill="#fff" data-original="#000000"/>
    <path d="M332.8 128c-13.934.025-25.289 11.191-25.549 25.122l-21.854 7.279-9.719-16.213A25.336 25.336 0 00281.6 128c0-14.138-11.461-25.6-25.6-25.6-14.138 0-25.6 11.462-25.6 25.6a25.34 25.34 0 005.922 16.171l-9.719 16.213-21.854-7.279c-.197-13.889-11.434-25.087-25.323-25.236-13.89-.149-25.364 10.806-25.858 24.688s10.172 25.625 24.037 26.464l10.129 35.499v15.88c0 14.139 11.462 25.6 25.6 25.6h85.333c14.138 0 25.6-11.461 25.6-25.6v-15.881l10.129-35.482c13.82-.797 24.49-12.459 24.057-26.296S346.643 127.932 332.8 128zm-76.8-8.533a8.533 8.533 0 110 17.066 8.533 8.533 0 010-17.066zm-28.297 59.298a8.533 8.533 0 0010.018-3.712l13.158-21.973c3.378.694 6.862.694 10.24 0l13.158 21.973a8.533 8.533 0 0010.018 3.712l28.424-9.481a25.49 25.49 0 005.257 5.12l-8.678 30.396H202.701l-8.678-30.404a25.515 25.515 0 005.257-5.12zM170.667 153.6a8.533 8.533 0 1117.066 0 8.533 8.533 0 01-17.066 0zM307.2 230.4a8.533 8.533 0 01-8.533 8.533h-85.333a8.533 8.533 0 01-8.533-8.533v-8.533h102.4v8.533zm25.6-68.267a8.533 8.533 0 110-17.066 8.533 8.533 0 010 17.066zM68.267 324.267h42.667c14.138 0 25.6-11.462 25.6-25.6s-11.462-25.6-25.6-25.6H68.267c-14.138 0-25.6 11.462-25.6 25.6s11.461 25.6 25.6 25.6zm0-34.134h42.667a8.533 8.533 0 010 17.066H68.267c-4.713 0-8.533-3.82-8.533-8.533s3.82-8.533 8.533-8.533zM221.867 273.067H179.2c-14.139 0-25.6 11.462-25.6 25.6s11.462 25.6 25.6 25.6h42.667c14.138 0 25.6-11.462 25.6-25.6s-11.462-25.6-25.6-25.6zm0 34.133H179.2a8.533 8.533 0 010-17.066h42.667a8.533 8.533 0 010 17.066zM332.8 273.067h-42.667c-14.138 0-25.6 11.462-25.6 25.6s11.462 25.6 25.6 25.6H332.8c14.138 0 25.6-11.462 25.6-25.6s-11.461-25.6-25.6-25.6zm0 34.133h-42.667a8.533 8.533 0 010-17.066H332.8c4.713 0 8.533 3.82 8.533 8.533s-3.82 8.533-8.533 8.533zM443.733 273.067h-42.667c-14.138 0-25.6 11.462-25.6 25.6s11.462 25.6 25.6 25.6h42.667c14.138 0 25.6-11.462 25.6-25.6s-11.461-25.6-25.6-25.6zm0 34.133h-42.667c-4.713 0-8.533-3.82-8.533-8.533s3.82-8.533 8.533-8.533h42.667c4.713 0 8.533 3.82 8.533 8.533s-3.82 8.533-8.533 8.533zM204.8 349.867H51.2a8.533 8.533 0 000 17.066h153.6c4.713 0 8.533-3.82 8.533-8.533s-3.82-8.533-8.533-8.533zM136.533 384H51.2a8.533 8.533 0 000 17.066h85.333c4.713 0 8.533-3.82 8.533-8.533s-3.82-8.533-8.533-8.533z" fill="#fff" data-original="#000000"/>
  </g>
</svg>
