<svg xmlns="http://www.w3.org/2000/svg" viewBox="0 0 512 512">
  <defs/>
  <g xmlns="http://www.w3.org/2000/svg">
    <path d="M460.459 441.32l-86.206-149.314C406.144 261.087 426 217.822 426 170 426 76.262 349.739 0 256 0S86 76.262 86 170c0 47.822 19.856 91.087 51.748 122.007L51.541 441.32a10 10 0 0011.262 14.656l66.454-17.904 17.722 66.503a10 10 0 0018.323 2.426L256 349.906 346.698 507a10 10 0 0018.323-2.426l17.722-66.503 66.455 17.904a9.997 9.997 0 0011.261-14.655zM106 170c0-82.71 67.29-150 150-150s150 67.29 150 150-67.29 150-150 150-150-67.29-150-150zm54.076 306.052l-14.075-52.819a9.999 9.999 0 00-12.265-7.081l-52.78 14.22 72.221-125.089c24.355 18.556 53.844 30.7 85.933 33.88zm218.188-59.901a10 10 0 00-12.265 7.081l-14.075 52.819-79.034-136.89c32.089-3.18 61.578-15.324 85.933-33.88l72.22 125.09z" fill="#fff" data-original="#000000"/>
    <path d="M193.352 149.609c-2.131 6.565-.384 13.635 4.56 18.451l15.992 15.581-3.769 22.006c-1.165 6.803 1.581 13.548 7.166 17.604 3.155 2.291 6.844 3.454 10.559 3.454 2.862 0 5.739-.691 8.397-2.089l19.759-10.395 19.765 10.384c6.11 3.21 13.374 2.684 18.956-1.375 5.583-4.058 8.325-10.805 7.156-17.607l-3.78-22.005 15.984-15.589c4.941-4.819 6.684-11.89 4.55-18.453-2.135-6.563-7.704-11.256-14.534-12.247l-22.096-3.205-9.886-20.019c-3.056-6.188-9.239-10.03-16.139-10.03h-.005c-6.901.002-13.085 3.848-16.139 10.038l-9.875 20.024-22.094 3.217c-6.829.996-12.396 5.691-14.527 12.255zm44.706 3.563a10.001 10.001 0 007.528-5.472l10.408-21.104 10.42 21.099a10 10 0 007.531 5.468l23.289 3.378-16.846 16.43a10.001 10.001 0 00-2.874 8.852l3.984 23.192-20.832-10.945a10 10 0 00-9.307.002l-20.826 10.956 3.972-23.194a10 10 0 00-2.878-8.851l-16.855-16.421z" fill="#fff" data-original="#000000"/>
    <path d="M256 296c69.477 0 126-56.523 126-126 0-51.209-30.58-96.935-77.906-116.493a9.996 9.996 0 00-13.061 5.422c-2.109 5.104.318 10.952 5.422 13.061C336.272 88.445 362 126.917 362 170c0 58.449-47.551 106-106 106s-106-47.551-106-106c0-43.186 25.812-81.692 65.759-98.098 5.109-2.098 7.55-7.941 5.452-13.049-2.099-5.109-7.94-7.549-13.049-5.452C160.68 72.902 130 118.669 130 170c0 69.477 56.524 126 126 126z" fill="#fff" data-original="#000000"/>
    <path d="M256.13 64c2.63 0 5.21-1.07 7.07-2.93s2.93-4.44 2.93-7.07-1.07-5.21-2.93-7.07-4.44-2.93-7.07-2.93-5.21 1.07-7.07 2.93c-1.87 1.86-2.93 4.44-2.93 7.07s1.06 5.21 2.93 7.07c1.86 1.86 4.44 2.93 7.07 2.93z" fill="#fff" data-original="#000000"/>
  </g>
</svg>
