<svg xmlns="http://www.w3.org/2000/svg" viewBox="0 0 512 512">
  <defs/>
  <path d="M360.605 252.558a14.982 14.982 0 00-9.858-10.781l-73.594-24.536 52.266-104.531c3.281-6.577 1.318-14.575-4.644-18.882-5.991-4.292-14.194-3.647-19.38 1.567l-150 150a15.015 15.015 0 00-3.999 14.048 14.982 14.982 0 009.858 10.781l73.594 24.536-52.266 104.531c-3.281 6.577-1.318 14.575 4.644 18.882 5.971 4.279 14.158 3.653 19.38-1.567l150-150a15.015 15.015 0 003.999-14.048z" fill="#fff" data-original="#000000" xmlns="http://www.w3.org/2000/svg"/>
  <path d="M256 0C179.87 0 107.961 35.406 60 92.529V76c0-8.291-6.709-15-15-15s-15 6.709-15 15v63.721c0 14.315 18.49 16.364 15 15 .308 0 .615-.015.923-.029l60-3.721c8.276-.513 14.561-7.632 14.048-15.894-.513-8.262-7.734-14.487-15.894-14.048l-30.394 1.89C115.783 65.651 183.9 30 256 30c124.072 0 226 101.928 226 226 0 8.291 6.709 15 15 15s15-6.709 15-15C512 115.39 396.61 0 256 0zM466.077 357.308l-60 3.721c-8.276.513-14.561 7.632-14.048 15.894s7.896 14.561 15.894 14.048l30.394-1.89C396.217 446.349 328.1 482 256 482 131.928 482 30 380.072 30 256c0-8.291-6.709-15-15-15s-15 6.709-15 15c0 140.61 115.39 256 256 256 76.13 0 148.039-35.406 196-92.529V436c0 8.291 6.709 15 15 15s15-6.709 15-15v-63.721c0-8.24-7.901-15.423-15.923-14.971z" fill="#fff" data-original="#000000" xmlns="http://www.w3.org/2000/svg"/>
</svg>
